<?xml version="1.0" standalone="no"?>
<!DOCTYPE svg PUBLIC "-//W3C//DTD SVG 20010904//EN"
 "http://www.w3.org/TR/2001/REC-SVG-20010904/DTD/svg10.dtd">
<svg version="1.0" xmlns="http://www.w3.org/2000/svg"
 width="239.000000pt" height="239.000000pt" viewBox="0 0 239.000000 239.000000"
 preserveAspectRatio="xMidYMid meet">
<metadata>
Created by potrace 1.14, written by Peter Selinger 2001-2017
</metadata>
<g transform="translate(0.000000,239.000000) scale(0.100000,-0.100000)"
fill="#000000" stroke="none">
<path d="M1193 2067 l3 -294 -45 9 c-57 11 -188 13 -261 4 -257 -32 -512 -197
-651 -421 -310 -502 -72 -1158 488 -1344 59 -20 85 -21 498 -21 418 0 437 1
497 21 257 88 457 275 561 526 l32 78 0 260 0 260 -29 70 c-108 260 -312 451
-571 534 -131 42 -248 53 -397 36 l-67 -8 3 292 3 291 -34 0 -33 0 3 -293z m4
-425 c0 -48 4 -406 8 -797 4 -390 8 -734 9 -763 1 -63 0 -63 -109 -19 -345
140 -562 475 -551 847 2 63 9 135 14 160 56 234 193 432 387 559 70 46 225
115 235 105 3 -3 6 -45 7 -92z m101 84 c400 -141 645 -541 590 -961 -43 -322
-265 -599 -574 -714 -30 -12 -61 -21 -68 -21 -11 0 -13 51 -10 268 5 351 13
1130 13 1305 1 75 3 137 5 137 2 0 22 -7 44 -14z"/>
</g>
</svg>
